<svg width="867" height="973" viewBox="0 0 767 873" fill="none" xmlns="http://www.w3.org/2000/svg">
<path d="M743.893 497.705C784.69 566.27 761.934 706.271 745.456 767.701L66.5528 872.634L0.48137 601.513L35.4998 0.299647C114.159 -1.15596 289.633 5.32783 362.252 42.9079C453.026 89.8829 412.469 166.619 487.7 206.184C562.93 245.749 520.542 351.496 546.773 391.345C573.005 431.194 692.895 411.999 743.893 497.705Z" fill="#FCA311" fill-opacity="0.15"/>
<path d="M743.463 497.961C763.781 532.107 768.302 584.119 765.653 635.353C763.016 686.387 753.272 736.541 745.058 767.256L66.9299 872.07L0.984837 601.467L35.9721 0.79106C75.3204 0.0819485 138.582 1.35271 201.093 7.463C263.873 13.5997 325.807 24.6109 362.022 43.352C384.648 55.0605 399.07 68.6119 409.16 82.9611C419.256 97.3186 425.029 112.494 430.333 127.491C430.843 128.932 431.348 130.371 431.852 131.807C441.843 160.266 451.474 187.697 487.467 206.627C524.834 226.278 533.028 262.358 535.112 298.687C535.633 307.765 535.771 316.848 535.891 325.686L535.906 326.816C536.02 335.253 536.13 343.458 536.557 351.194C537.447 367.335 539.718 381.537 546.356 391.62C553.015 401.736 565.575 408.05 581.313 413.198C590.959 416.353 601.87 419.089 613.424 421.986C620.717 423.815 628.265 425.708 635.913 427.811C675.517 438.7 718.07 455.285 743.463 497.961Z"/>
</svg>
