<svg width="4233" height="3190" viewBox="0 0 4233 3190" fill="none" xmlns="http://www.w3.org/2000/svg">
<path d="M3594.82 2388.28C3926.04 2388.28 4194.55 2105.02 4194.55 1755.59C4194.55 1406.16 3926.04 1122.89 3594.82 1122.89C3263.6 1122.89 2995.1 1406.16 2995.1 1755.59C2995.1 2105.02 3263.6 2388.28 3594.82 2388.28Z" fill="url(#paint0_linear_47_4)" fill-opacity="0.15"/>
<path d="M2368.72 3188.79C2699.94 3188.79 2968.45 2905.52 2968.45 2556.09C2968.45 2206.67 2699.94 1923.4 2368.72 1923.4C2037.51 1923.4 1769 2206.67 1769 2556.09C1769 2905.52 2037.51 3188.79 2368.72 3188.79Z" stroke="#FCA311" stroke-miterlimit="10"/>
<path d="M3632.65 1524.39C3963.87 1524.39 4232.37 1241.12 4232.37 891.695C4232.37 542.267 3963.87 259 3632.65 259C3301.43 259 3032.93 542.267 3032.93 891.695C3032.93 1241.12 3301.43 1524.39 3632.65 1524.39Z" stroke="#FCA311" stroke-miterlimit="10"/>
<path d="M3032.93 2778.3C3256.69 2778.3 3438.08 2586.93 3438.08 2350.86C3438.08 2114.8 3256.69 1923.43 3032.93 1923.43C2809.16 1923.43 2627.77 2114.8 2627.77 2350.86C2627.77 2586.93 2809.16 2778.3 3032.93 2778.3Z" fill="url(#paint1_linear_47_4)" fill-opacity="0.15"/>
<path d="M599.724 2036.38C930.942 2036.38 1199.45 1753.11 1199.45 1403.69C1199.45 1054.26 930.942 770.99 599.724 770.99C268.505 770.99 0 1054.26 0 1403.69C0 1753.11 268.505 2036.38 599.724 2036.38Z" fill="url(#paint2_linear_47_4)" fill-opacity="0.15"/>
<path d="M599.724 1061.86C823.486 1061.86 1004.88 870.495 1004.88 634.431C1004.88 398.368 823.486 207 599.724 207C375.962 207 194.567 398.368 194.567 634.431C194.567 870.495 375.962 1061.86 599.724 1061.86Z" fill="url(#paint3_linear_47_4)" fill-opacity="0.15"/>
<path d="M3292.1 697L3199 795.184" stroke="#14213D" stroke-miterlimit="10"/>
<path d="M3292.1 795.184L3199 697" stroke="#14213D" stroke-miterlimit="10"/>
<path d="M3292.1 830.491L3199 928.71" stroke="#14213D" stroke-miterlimit="10"/>
<path d="M3292.1 928.71L3199 830.491" stroke="#14213D" stroke-miterlimit="10"/>
<path d="M3292.1 963.983L3199 1062.2" stroke="#14213D" stroke-miterlimit="10"/>
<path d="M3292.1 1062.2L3199 963.983" stroke="#14213D" stroke-miterlimit="10"/>
<path d="M794 2175L887.068 2273.22" stroke="#14213D" stroke-miterlimit="10"/>
<path d="M887.068 2175L840.534 2224.11L794 2273.22" stroke="#14213D" stroke-miterlimit="10"/>
<path d="M920.535 2175L1013.63 2273.22" stroke="#14213D" stroke-miterlimit="10"/>
<path d="M1013.63 2175L920.535 2273.22" stroke="#14213D" stroke-miterlimit="10"/>
<path d="M1047.07 2175L1140.17 2273.22" stroke="#14213D" stroke-miterlimit="10"/>
<path d="M1140.17 2175L1047.07 2273.22" stroke="#14213D" stroke-miterlimit="10"/>
<defs>
<linearGradient id="paint0_linear_47_4" x1="3594.82" y1="2388.28" x2="3594.82" y2="1122.93" gradientUnits="userSpaceOnUse">
<stop stop-color="#FCA311"/>
<stop offset="1" stop-color="#14213D"/>
</linearGradient>
<linearGradient id="paint1_linear_47_4" x1="2627.77" y1="2350.85" x2="3438.1" y2="2350.85" gradientUnits="userSpaceOnUse">
<stop stop-color="#FCA311"/>
<stop offset="1" stop-color="#14213D"/>
</linearGradient>
<linearGradient id="paint2_linear_47_4" x1="599.709" y1="2036.36" x2="599.709" y2="771.006" gradientUnits="userSpaceOnUse">
<stop stop-color="#FCA311"/>
<stop offset="1" stop-color="#14213D"/>
</linearGradient>
<linearGradient id="paint3_linear_47_4" x1="599.709" y1="1061.85" x2="599.709" y2="206.976" gradientUnits="userSpaceOnUse">
<stop stop-color="#FCA311"/>
<stop offset="1" stop-color="#14213D"/>
</linearGradient>
</defs>
</svg>
